<?xml version="1.0" encoding="UTF-8" standalone="no"?>
<!-- Created with Inkscape (http://www.inkscape.org/) -->

<svg
   width="512"
   height="512"
   viewBox="0 0 512 512"
   version="1.1"
   id="svg1"
   xmlns:xlink="http://www.w3.org/1999/xlink"
   xmlns="http://www.w3.org/2000/svg"
   xmlns:svg="http://www.w3.org/2000/svg">
  <defs
     id="defs1">
    <symbol
       id="Projectile"
       style="display:inline">
      <circle
         style="display:inline"
         id="path1"
         cx="94.263702"
         cy="417.48904"
         r="92" />
      <path
         style="display:inline"
         d="M 473.94513,19.879394 C 220.87694,260.05232 22.463136,364.69534 22.463136,364.69534 L 159.38947,473.56352 c 0,0 74.6149,-213.57476 314.55566,-453.684126 z"
         id="path2" />
    </symbol>
  </defs>
  <g
     id="layer8"
     style="display:inline;fill:#ffffff">
    <use
       xlink:href="#Projectile"
       id="use1-41"
       transform="matrix(0.08744861,0.37921816,-0.37921816,0.08744861,198.6162,52.191188)"
       x="0"
       y="0"
       style="fill:#ffffff" />
    <use
       xlink:href="#Projectile"
       id="use13"
       transform="matrix(-0.03664928,0.38744097,0.38744097,0.03664928,274.14646,48.377025)"
       x="0"
       y="0"
       style="fill:#ffffff" />
    <use
       xlink:href="#Projectile"
       id="use14"
       transform="matrix(0,-0.3891705,0.3891705,0,258.80009,430.01191)"
       x="0"
       y="0"
       style="fill:#ffffff" />
    <use
       xlink:href="#Projectile"
       id="use15"
       transform="matrix(0.03299177,-0.38776954,-0.38776954,-0.03299177,212.18462,455.81691)"
       x="0"
       y="0"
       style="fill:#ffffff" />
    <use
       xlink:href="#Projectile"
       id="use16"
       transform="matrix(-0.25771009,-0.2916148,-0.2916148,0.25771009,363.98925,379.82102)"
       x="0"
       y="0"
       style="fill:#ffffff" />
    <use
       xlink:href="#Projectile"
       id="use17"
       transform="matrix(0.25771009,0.2916148,0.2916148,-0.25771009,122.39818,125.66157)"
       x="0"
       y="0"
       style="fill:#ffffff" />
    <rect
       style="display:inline;fill:#ffffff;fill-opacity:0;stroke:#ffffff;stroke-width:0"
       id="rect13"
       width="512"
       height="512"
       x="9.4299548e-07"
       y="1.0001069e-06" />
  </g>
</svg>
